<?xml version="1.0" encoding="UTF-8" standalone="no"?>
<svg
   xmlns:dc="http://purl.org/dc/elements/1.1/"
   xmlns:cc="http://creativecommons.org/ns#"
   xmlns:rdf="http://www.w3.org/1999/02/22-rdf-syntax-ns#"
   xmlns:svg="http://www.w3.org/2000/svg"
   xmlns="http://www.w3.org/2000/svg"
   viewBox="0 0 1847.2667 756.78668"
   height="756.78668"
   width="1847.2667"
   xml:space="preserve"
   id="svg2"
   version="1.1"><metadata
     id="metadata8"><rdf:RDF><cc:Work
         rdf:about=""><dc:format>image/svg+xml</dc:format><dc:type
           rdf:resource="http://purl.org/dc/dcmitype/StillImage" /></cc:Work></rdf:RDF></metadata><defs
     id="defs6"><clipPath
       id="clipPath20"
       clipPathUnits="userSpaceOnUse"><path
         id="path18"
         d="M 0,5675.88 V 0 h 13854.5 v 5675.88 z" /></clipPath></defs><g
     transform="matrix(1.3333333,0,0,-1.3333333,0,756.78667)"
     id="g10"><g
       transform="scale(0.1)"
       id="g12"><g
         id="g14"><g
           clip-path="url(#clipPath20)"
           id="g16"><path
             id="path22"
             style="fill:#3e4f67;fill-opacity:1;fill-rule:nonzero;stroke:none"
             d="m 12975.7,1755.98 c 186.7,492.98 373.3,985.95 560.3,1479.86 106.8,0 211.2,0 318.5,0 0,-592.36 0,-1182.9 0,-1775.64 -70.7,0 -140,0 -215.9,0 0,488.73 0,976.81 0,1463.2 -8.2,2.05 -9.9,2.91 -11.4,2.72 -1.5,-0.18 -3.8,-1.09 -4.3,-2.25 -184.6,-487.24 -369.1,-974.53 -554.2,-1463.53 -65.5,0 -129.9,0 -197.9,0 -183.4,487.59 -367.2,976.25 -550.9,1464.9 -3.6,-0.69 -7.2,-1.37 -10.8,-2.06 0,-486.18 0,-972.35 0,-1461.85 -77.3,0 -149.4,0 -223.6,0 0,591.66 0,1182.29 0,1774.68 107.4,0 212,0 320.5,0 185.9,-493.5 371.7,-986.8 557.5,-1480.1 4.1,0.02 8.1,0.05 12.2,0.07" /><path
             id="path24"
             style="fill:#9a421c;fill-opacity:1;fill-rule:nonzero;stroke:none"
             d="m 3227.48,3234.29 c 184.93,-491.08 370.48,-983.8 556.03,-1476.53 3.37,-0.67 6.73,-1.35 10.1,-2.02 186.43,492.28 372.86,984.55 560.38,1479.71 105.27,0 211.49,0 321.22,0 0,-589.56 0,-1180.4 0,-1775.02 -69.5,0 -141.48,0 -219.68,0 0,488.87 0,976.94 0,1465.01 -4.3,0.84 -8.6,1.68 -12.89,2.51 -184.19,-489.69 -368.38,-979.39 -552.77,-1469.6 -67.49,0 -132.14,0 -200.23,0 -183.56,488.19 -367.32,976.92 -551.08,1465.64 -2.99,-0.51 -5.98,-1.02 -8.97,-1.53 0,-486.13 0,-972.27 0,-1462.09 -77.09,0 -149.54,0 -225.67,0 0,588.66 0,1179.28 0,1773.92 104.18,0 209.83,0 323.56,0" /><path
             id="path26"
             style="fill:#42536b;fill-opacity:1;fill-rule:nonzero;stroke:none"
             d="m 5601.69,3398.62 c -14.1,3.26 -28.44,6.57 -46.2,10.68 -191.02,814.09 -642.83,1437.17 -1376.32,1844.68 -518.43,288.03 -1077.32,393.15 -1665.78,319.54 C 1282.42,5419.54 353.992,4506.82 131.258,3356.84 -99.1406,2167.29 467.848,964.531 1566.17,392 1957.47,188.02 2374.98,84.3984 2816.5,81.5703 c 441.85,-2.8398 861.67,92.1797 1257.94,288.9607 395.92,196.61 725.68,473.008 992.61,827.859 15.28,-10.55 27.47,-18.76 39.42,-27.3 8.01,-5.72 15.69,-11.91 24.51,-18.64 C 5029.89,1017.53 4922.93,894.809 4803.84,782.898 4617.35,607.672 4411.99,458.551 4185.97,338.078 3922.6,197.711 3644.22,100.789 3350.64,47.1211 3110.2,3.16016 2867.94,-10.75 2624.53,8.37109 2275.11,35.8203 1941.62,124.441 1624.25,274.738 1392.83,384.328 1179.89,521.93 985.887,688.18 746.34,893.449 546.996,1132.95 387.516,1405.54 203.07,1720.8 84.2656,2059.59 31.1992,2420.22 c -78.2148,531.53 -9.082,1044.56 204.1138,1538.31 118.46,274.35 276.554,523.59 473.382,747.5 300.805,342.19 663.785,598.13 1087.465,766.33 368.19,146.17 751.14,215.62 1146.92,201.8 505.33,-17.66 974.51,-159.8 1405.51,-425.76 202.06,-124.69 385.6,-272.24 550.39,-443.05 182.41,-189.07 335.4,-399.45 459.22,-631.41 116.47,-218.18 201.05,-447.93 259.66,-687.88 7.61,-31.14 7.99,-57.75 -16.17,-87.44" /><path
             id="path28"
             style="fill:#3e4f67;fill-opacity:1;fill-rule:nonzero;stroke:none"
             d="m 6844.53,3040.91 c 0,-464.46 0,-923.32 0,-1384.15 151.7,0 299.98,-3.23 448.06,0.76 221.32,5.96 417.2,131.39 494.15,354.56 76.36,221.48 73.25,447.98 10.7,672.32 -42.77,153.35 -140.49,261.35 -291.23,318.84 -80.55,30.72 -165.14,38.63 -249.7,40.62 -126.53,2.98 -253.19,0.44 -379.79,0.03 -9.65,-0.03 -19.29,-1.73 -32.19,-2.98 z m -231.56,196.85 c 13.01,0 24.39,0.01 35.78,-0.01 216.64,-0.33 433.31,1.43 649.9,-1.81 123.9,-1.85 244.2,-27.37 358.13,-78.57 204.21,-91.77 326.18,-251.3 381.94,-464.71 29.24,-111.87 36.68,-226.05 33.78,-341.44 -2.8,-111.81 -13.71,-222.06 -41.62,-330.83 -77.66,-302.71 -291.84,-499.19 -600.29,-543.87 -75.55,-10.94 -152.42,-16.55 -228.78,-17.5 -194.87,-2.41 -389.79,-0.8 -588.84,-0.8 0,591.79 0,1182.2 0,1779.54" /><path
             id="path30"
             style="fill:#3e4f67;fill-opacity:1;fill-rule:nonzero;stroke:none"
             d="m 11555.1,2349.9 c -8.8,72.38 -12.9,145.68 -27.2,216.96 -30.1,150.45 -96.4,284.35 -213.8,385.4 -154,132.64 -336.4,157.57 -529.6,117.59 -185.2,-38.33 -310.2,-155.98 -387.7,-322.32 -118.6,-255 -113.6,-515.13 -10.7,-774.07 34.7,-87.28 87.5,-163.91 160.2,-225.53 108.7,-92.17 235.4,-132.82 376.5,-135.07 225.5,-3.6 398.3,89.07 514.6,282.72 83.7,139.32 113.7,292.68 117.7,454.32 z m 227.5,-27.07 c 1.7,-179.87 -46.1,-369.89 -155.4,-541.53 -89.1,-139.85 -210.9,-243.89 -366.4,-303.72 -222.3,-85.55 -447.5,-86.41 -667.6,2.6 -209.4,84.7 -352.7,241.97 -434.6,450.89 -109.7,279.71 -113.1,563.01 2.3,841.43 108.3,261.14 298.9,435.63 580.9,489.72 215.9,41.41 428.6,23.58 623.1,-91.74 178.2,-105.62 290.9,-264.49 359.2,-457.21 42.1,-118.84 59.2,-241.89 58.5,-390.44" /><path
             id="path32"
             style="fill:#3e4f67;fill-opacity:1;fill-rule:nonzero;stroke:none"
             d="m 5313.62,1656.25 c 334.39,0 665.64,0 1000.12,0 0,-65.1 0,-127.76 0,-194.36 -408.22,0 -818.5,0 -1231.98,0 0,589.9 0,1180.26 0,1773.29 406.65,0 812.48,0 1221.98,0 0,-61.69 0,-123.74 0,-191.15 -330.35,0 -659.3,0 -991.02,0 0,-191.09 0,-376.9 0,-568.54 307.22,0 614.21,0 923.82,0 0,-68.18 0,-130.56 0,-197.28 -307.56,0 -613.39,0 -922.92,0 0,-208.08 0,-411.88 0,-621.96" /><path
             id="path34"
             style="fill:#9a4026;fill-opacity:1;fill-rule:nonzero;stroke:none"
             d="m 8997,3073.54 c -235.33,-45.7 -366.61,-201.81 -436.69,-418.33 -44.12,-136.29 -48.89,-277.24 -34.9,-419.62 12.01,-122.27 40.88,-238.61 102.3,-345.86 98.86,-172.61 248,-262.41 446.17,-274.33 104.82,-6.31 206.85,1.96 300.5,52.96 162.24,88.36 241.36,231.67 264.36,410.37 1.69,13.14 1.73,26.48 2.78,43.88 77.73,0 154.85,0 235.86,0 -20.38,-154.48 -60.66,-301.24 -155.26,-428.21 -120.34,-161.49 -285.29,-243.34 -482.25,-269.2 -147.61,-19.37 -291.95,-9.88 -432.56,40.19 -212.05,75.49 -353,224.59 -439.76,428.76 -67.74,159.4 -84.84,326.75 -80.25,498.17 4.28,160.27 35.73,313.58 110.33,456.08 122.78,234.51 310.71,381.11 576.51,419.83 179.62,26.17 355.48,15.65 521.65,-63.6 207.62,-99.01 325.95,-265.42 363.74,-495.35 -78.41,0 -154.1,0 -232.12,0 -4.46,13.67 -9.27,27.54 -13.52,41.58 -57.67,190.73 -191.29,293.81 -382.85,324.93 -58.6,9.51 -119.4,5.49 -179.19,7.67 -18.28,-3.3 -36.56,-6.61 -54.85,-9.92" /><path
             id="path36"
             style="fill:#3e4f67;fill-opacity:1;fill-rule:nonzero;stroke:none"
             d="m 9132.41,2564.4 c 53.55,-3.59 101.34,-16.91 140.08,-51.25 60.08,-53.28 92.79,-142.04 28.71,-232.47 -76.5,-107.97 -260.77,-106.44 -336.17,1.99 -55.03,79.15 -37.55,179.9 40.1,238.11 38.86,29.13 83.17,39.63 127.28,43.62" /><path
             id="path38"
             style="fill:#42536b;fill-opacity:1;fill-rule:nonzero;stroke:none"
             d="m 7021.77,4154.44 c -17.59,-11.4 -29.85,-19.34 -42.55,-27.56 -50.07,55.18 -98.8,108.88 -150.81,166.19 7.61,9.56 17.23,21.65 29.68,37.3 65.74,-49 112.78,-109.9 163.68,-175.93" /><path
             id="path40"
             style="fill:#42536b;fill-opacity:1;fill-rule:nonzero;stroke:none"
             d="m 6699.67,4439.32 c -9.53,-17.87 -16.32,-30.61 -21.83,-40.93 -71.77,19.4 -141,38.1 -212.88,57.52 0,10.91 0,26.74 0,45.73 83.21,-1.93 157.14,-26.23 234.71,-62.32" /><path
             id="path42"
             style="fill:#42536b;fill-opacity:1;fill-rule:nonzero;stroke:none"
             d="m 5917.2,4236.38 c 17.33,-15.92 28.19,-25.89 39.36,-36.15 -43.57,-61.48 -86.35,-121.84 -131.45,-185.49 -13.27,7.4 -26.79,14.93 -47.06,26.23 47.49,66.69 92.68,130.15 139.15,195.41" /><path
             id="path44"
             style="fill:#42536b;fill-opacity:1;fill-rule:nonzero;stroke:none"
             d="m 7077.3,3969 c 15.54,9.32 28,16.8 46.26,27.75 33.08,-71.95 65.07,-141.52 99.01,-215.35 -17.48,-7.14 -31.83,-13.01 -50.29,-20.56 -31.59,69.24 -62.09,136.08 -94.98,208.16" /><path
             id="path46"
             style="fill:#42536b;fill-opacity:1;fill-rule:nonzero;stroke:none"
             d="m 5664.9,3632.4 c -17.43,5.42 -29.95,9.32 -46.62,14.51 14.59,77.59 46.25,147.47 78.17,220.05 16.04,-5.63 29.58,-10.38 47.16,-16.55 -26.07,-72.23 -51.59,-142.9 -78.71,-218.01" /><path
             id="path48"
             style="fill:#42536b;fill-opacity:1;fill-rule:nonzero;stroke:none"
             d="m 6087.07,4327.03 c -8.48,11.33 -17.19,22.97 -27.92,37.31 63.96,50.08 132.53,87.69 212.07,112.45 5.65,-16.62 10.64,-31.32 14.94,-44 -66.72,-35.44 -130.56,-69.35 -199.09,-105.76" /><path
             id="path50"
             style="fill:#42536b;fill-opacity:1;fill-rule:nonzero;stroke:none"
             d="m 7277.25,3360.21 c -16.78,76.15 -32.34,146.74 -48.63,220.62 5.09,3.11 11.28,8.07 18.32,10.87 7.54,3 15.89,3.96 32.2,7.74 17.24,-75.69 34.26,-150.37 52.16,-228.94 -18.12,-3.45 -33.35,-6.35 -54.05,-10.29" /><path
             id="path52"
             style="fill:#42536b;fill-opacity:1;fill-rule:nonzero;stroke:none"
             d="m 8692.02,3738.06 c -16,-14.48 -25.76,-23.3 -32.27,-29.19 -50.15,52.51 -99.07,103.73 -147.99,154.95 -4.06,-2.79 -8.12,-5.58 -12.18,-8.38 8.94,11.34 17.87,22.67 31.36,39.78 53.96,-52.64 105.74,-103.17 161.08,-157.16" /><path
             id="path54"
             style="fill:#42536b;fill-opacity:1;fill-rule:nonzero;stroke:none"
             d="m 9061.22,2843.57 c 15.91,3.71 29.68,6.93 50.05,11.69 13.09,-74.08 25.56,-144.68 38.58,-218.39 -18.14,-3.54 -31.99,-6.24 -50.38,-9.82 -12.74,72.11 -24.98,141.37 -38.25,216.52" /><path
             id="path56"
             style="fill:#42536b;fill-opacity:1;fill-rule:nonzero;stroke:none"
             d="m 7787.02,3947.58 c -5.59,8.47 -13.45,20.38 -22.36,33.88 62.34,49.38 133.23,69.53 209.11,87.3 4.2,-17.61 7.54,-31.59 10.48,-43.91 -65.15,-25.53 -129.4,-50.7 -197.23,-77.27" /><path
             id="path58"
             style="fill:#42536b;fill-opacity:1;fill-rule:nonzero;stroke:none"
             d="m 8154.44,4022.46 c 1.88,13.26 3.71,26.21 5.51,38.88 20.53,12.68 152.18,-30.68 213.74,-70.64 -6.01,-12.77 -12.14,-25.82 -17.83,-37.93 -67.02,23.19 -132.1,45.7 -201.42,69.69" /><path
             id="path60"
             style="fill:#42536b;fill-opacity:1;fill-rule:nonzero;stroke:none"
             d="m 8870.49,3380.18 c -37.32,62.01 -72.89,121.13 -110.15,183.04 10.16,8.33 21.14,17.33 39.59,32.46 39.61,-65.61 77.34,-128.09 116.9,-193.61 -19.06,-9.01 -31.87,-15.06 -46.34,-21.89" /><path
             id="path62"
             style="fill:#42536b;fill-opacity:1;fill-rule:nonzero;stroke:none"
             d="m 7538.77,3655.46 c -12.88,6.3 -25.52,12.48 -45.61,22.3 43.29,64.13 84.31,124.89 127.29,188.55 16.29,-15.28 26.86,-25.19 37.49,-35.16 -39.98,-58.93 -78.69,-116.01 -119.17,-175.69" /><path
             id="path64"
             style="fill:#42536b;fill-opacity:1;fill-rule:nonzero;stroke:none"
             d="m 7391.58,3391.84 c 11.41,39.65 21.85,75.9 33.4,116.01 18.06,-5.41 31.63,-9.48 48.75,-14.61 -10.79,-37.91 -20.99,-73.77 -32.04,-112.56 -17.91,3.98 -33.13,7.37 -50.11,11.16" /><path
             id="path66"
             style="fill:#42536b;fill-opacity:1;fill-rule:nonzero;stroke:none"
             d="m 8997,3073.54 c 18.29,3.31 36.57,6.62 54.85,9.92 3.16,-16.28 6.32,-32.56 9.97,-51.38 -6.18,-3.45 -12.74,-8.22 -20.07,-10.88 -7.43,-2.7 -15.61,-3.32 -25.38,-5.22 -6.84,20.32 -13.1,38.94 -19.37,57.56" /></g></g></g></g></svg>